<svg width="12" height="10" viewBox="0 0 12 10" fill="none" xmlns="http://www.w3.org/2000/svg">
<path d="M11.5 4.7217C11.5 4.98633 11.3033 5.20504 11.0482 5.23965L10.9773 5.24442L1.78843 5.24401L5.10808 8.5501C5.31266 8.7538 5.31337 9.08477 5.10967 9.28935C4.9245 9.47533 4.63413 9.49282 4.42917 9.34143L4.37043 9.29094L0.153762 5.09239C0.126795 5.06554 0.103373 5.03648 0.0834939 5.0058C0.0778796 4.99656 0.0721642 4.98711 0.0667454 4.97747C0.0617615 4.96921 0.0572583 4.96063 0.0530087 4.95195C0.0471083 4.93933 0.0413424 4.92629 0.0361077 4.91298C0.0318543 4.90273 0.0283028 4.89275 0.0250632 4.88269C0.0212122 4.87022 0.01747 4.85693 0.0142514 4.84344C0.0118586 4.83402 0.00996366 4.82495 0.00831094 4.81585C0.00598588 4.8023 0.00400701 4.78829 0.00259557 4.77411C0.00137677 4.76329 0.000643397 4.75258 0.000237131 4.74185C0.000132227 4.73535 6.19468e-07 4.72854 6.19169e-07 4.7217L0.000262879 4.70145C0.000663421 4.69119 0.00136437 4.68094 0.00236573 4.67071L6.19169e-07 4.7217C6.17727e-07 4.68871 0.00305619 4.65644 0.00889935 4.62515C0.0102545 4.61767 0.0118691 4.61 0.0136572 4.60236C0.0173708 4.58662 0.0216614 4.57147 0.0266024 4.55661C0.0290276 4.54923 0.0318533 4.54135 0.0348727 4.53352C0.0409809 4.51779 0.0476204 4.5028 0.0549246 4.48819C0.0583178 4.48132 0.0621182 4.47413 0.0660979 4.46702C0.0726305 4.45541 0.0793597 4.44438 0.086476 4.43362C0.0914961 4.42601 0.097056 4.41809 0.102862 4.41029L0.107385 4.40426C0.121468 4.38587 0.136747 4.36843 0.153103 4.35207L0.153731 4.35159L4.3704 0.152344C4.57496 -0.0513702 4.90593 -0.050685 5.10964 0.153875C5.29484 0.339838 5.31111 0.630275 5.15885 0.834598L5.10811 0.893121L1.78982 4.19855L10.9773 4.19897C11.266 4.19897 11.5 4.433 11.5 4.7217Z" fill="#595959"/>
</svg>
