<svg width="18" height="14" viewBox="0 0 18 14" fill="none" xmlns="http://www.w3.org/2000/svg">
<path d="M17.25 7.00009C17.25 7.37979 16.9678 7.69358 16.6018 7.74325L16.5 7.75009L3.316 7.74949L8.07899 12.493C8.37251 12.7853 8.37353 13.2602 8.08127 13.5537C7.81558 13.8205 7.39897 13.8456 7.10489 13.6284L7.02061 13.556L0.970614 7.53197C0.931923 7.49344 0.898318 7.45175 0.869795 7.40772C0.861739 7.39446 0.853539 7.38091 0.845764 7.36708C0.838614 7.35522 0.832152 7.34291 0.826056 7.33046C0.817589 7.31235 0.809317 7.29364 0.801806 7.27455C0.795702 7.25983 0.790608 7.24552 0.78596 7.23109C0.780434 7.21319 0.775065 7.19412 0.770447 7.17477C0.767014 7.16125 0.764294 7.14824 0.761923 7.13518C0.758587 7.11575 0.755749 7.09564 0.753723 7.07529C0.751974 7.05978 0.750922 7.0444 0.75034 7.02901C0.750189 7.01968 0.75 7.00991 0.75 7.0001L0.750376 6.97104C0.75095 6.95632 0.751955 6.94162 0.753393 6.92694L0.75 7.0001C0.75 6.95277 0.754383 6.90646 0.762768 6.86156C0.764712 6.85084 0.767029 6.83983 0.769594 6.82887C0.774922 6.80629 0.781079 6.78455 0.788168 6.76324C0.791647 6.75265 0.795702 6.74133 0.800034 6.7301C0.808798 6.70754 0.818325 6.68602 0.828804 6.66507C0.833674 6.65521 0.839125 6.6449 0.844836 6.63469C0.854208 6.61803 0.863863 6.6022 0.874073 6.58677C0.881277 6.57585 0.889254 6.56448 0.897583 6.55329L0.904074 6.54465C0.92428 6.51825 0.946202 6.49323 0.96967 6.46976L0.97057 6.46907L7.02057 0.444068C7.31407 0.151782 7.78894 0.152765 8.08123 0.446264C8.34694 0.713081 8.37029 1.12979 8.15182 1.42295L8.07903 1.50692L3.318 6.24949L16.5 6.25009C16.9142 6.25009 17.25 6.58588 17.25 7.00009Z" fill="white"/>
</svg>
