<svg width="20" height="18" viewBox="0 0 20 18" fill="none" xmlns="http://www.w3.org/2000/svg">
<path d="M8.68979 11.1186L1.84766 7.7744C0.384274 7.0592 0.384274 4.97405 1.84669 4.25889L8.38239 1.06452C9.23959 0.64516 10.2418 0.64516 11.099 1.06452L17.6424 4.26181C19.1058 4.97697 19.1058 7.0631 17.6424 7.7782L11.1019 10.9746C10.2418 11.3949 9.23669 11.3949 8.37649 10.9746L4.22179 8.9439" stroke="#595959" stroke-width="1.5" stroke-linecap="round" stroke-linejoin="round"/>
<path d="M18.7499 6.00781L18.7168 11.4216" stroke="#595959" stroke-width="1.5" stroke-linecap="round" stroke-linejoin="round"/>
<path d="M4.22266 8.94531V13.9164C4.22266 14.7726 4.73057 15.5608 5.52162 15.8877C8.2966 17.0329 11.06 17.0475 13.8126 15.8945C14.5978 15.5656 15.1008 14.7794 15.1008 13.9281V9.03581" stroke="#595959" stroke-width="1.5" stroke-linecap="round" stroke-linejoin="round"/>
</svg>
