<svg width="18" height="21" viewBox="0 0 18 21" fill="none" xmlns="http://www.w3.org/2000/svg">
<path fill-rule="evenodd" clip-rule="evenodd" d="M4.06261 2.03846C3.02785 2.03846 2.18948 2.88359 2.18948 3.9267V14.3779C2.70006 14.0501 3.30632 13.8602 3.95669 13.8602H15.8034V2.49867C15.8034 2.24491 15.5986 2.03846 15.3469 2.03846H4.06261ZM15.8048 15.3987H3.95669C2.98034 15.3987 2.18948 16.1959 2.18948 17.1801C2.18948 18.1643 2.98034 18.9615 3.95669 18.9615H15.3538C15.6053 18.9615 15.8089 18.7571 15.8104 18.5044L15.8048 15.3987ZM0.66333 17.1801V3.9267C0.66333 2.03392 2.18498 0.5 4.06261 0.5H15.3469C16.4415 0.5 17.3296 1.39525 17.3296 2.49867V14.6294L17.3365 18.5039V18.5076C17.3333 19.6094 16.4463 20.5 15.3538 20.5H3.95669C2.13746 20.5 0.66333 19.0139 0.66333 17.1801ZM5.29255 5.50649C5.29255 5.08166 5.63419 4.73726 6.05563 4.73726H8.84826C9.26968 4.73726 9.61133 5.08166 9.61133 5.50649C9.61133 5.93133 9.26968 6.27572 8.84826 6.27572H6.05563C5.63419 6.27572 5.29255 5.93133 5.29255 5.50649ZM5.29255 9.59467C5.29255 9.16985 5.63419 8.82544 6.05563 8.82544H11.5943C12.0157 8.82544 12.3574 9.16985 12.3574 9.59467C12.3574 10.0195 12.0157 10.3639 11.5943 10.3639H6.05563C5.63419 10.3639 5.29255 10.0195 5.29255 9.59467Z" fill="#1A1A1A"/>
</svg>
