<svg width="20" height="23" viewBox="0 0 20 23" fill="none" xmlns="http://www.w3.org/2000/svg">
<path fill-rule="evenodd" clip-rule="evenodd" d="M7.11173 18.4042C7.11173 20.1145 5.73724 21.5 4.04068 21.5C2.34519 21.5 0.970703 20.1145 0.970703 18.4042C0.970703 16.695 2.34519 15.3083 4.04068 15.3083C5.73724 15.3083 7.11173 16.695 7.11173 18.4042Z" stroke="#1A1A1A" stroke-width="1.5" stroke-linecap="round" stroke-linejoin="round"/>
<path fill-rule="evenodd" clip-rule="evenodd" d="M19.0292 16.1971C19.0292 17.9063 17.6548 19.293 15.9581 19.293C14.2626 19.293 12.8882 17.9063 12.8882 16.1971C12.8882 14.4868 14.2626 13.1013 15.9581 13.1013C17.6548 13.1013 19.0292 14.4868 19.0292 16.1971Z" stroke="#1A1A1A" stroke-width="1.5" stroke-linecap="round" stroke-linejoin="round"/>
<path d="M19.0294 16.1965L19.0295 8.84825L19.0296 1.5C15.1259 3.32752 11.0886 4.02139 7.11274 3.70757L7.11255 18.4038" stroke="#1A1A1A" stroke-width="1.5" stroke-linecap="round" stroke-linejoin="round"/>
</svg>
