<svg width="20" height="20" viewBox="0 0 20 20" fill="none" xmlns="http://www.w3.org/2000/svg">
<path d="M16.6356 13.6284C17.2059 13.6284 17.4911 13.6284 17.7243 13.5626C18.3106 13.3971 18.7689 12.9389 18.9343 12.3525C19.0001 12.1193 19.0001 11.8342 19.0001 11.264C19.0001 8.88638 19.0001 6.41583 19.0001 4.03817C19.0001 3.46796 19.0001 3.18286 18.9343 2.94964C18.7689 2.3633 18.3106 1.90505 17.7243 1.73963C17.4911 1.67383 17.2059 1.67383 16.6356 1.67383C16.0652 1.67383 15.7801 1.67383 15.5469 1.73963C14.9605 1.90505 14.5023 2.3633 14.3368 2.94964C14.271 3.18286 14.271 3.46796 14.271 4.03817C14.271 6.41583 14.271 8.88638 14.271 11.264C14.271 11.8342 14.271 12.1193 14.3368 12.3525C14.5023 12.9389 14.9605 13.3971 15.5469 13.5626C15.7801 13.6284 16.0652 13.6284 16.6356 13.6284Z" stroke="#141414" stroke-width="1.5" stroke-linecap="round" stroke-linejoin="round"/>
<path d="M14.2715 12.547C12.8258 14.4163 11.3916 16.2951 9.93395 18.1551C9.47215 18.7443 8.66355 19.0412 7.93767 18.8301C6.31861 18.3595 6.73193 15.4881 7.15534 13.9652C7.46932 12.8359 7.08757 12.4442 6.16824 12.4442C4.15792 12.4442 3.20271 12.4442 2.51839 12.033C1.89249 11.6569 1.43292 11.0569 1.23277 10.3547C0.815431 8.89045 0.959181 6.10123 1.6744 4.15722C2.15759 2.84388 3.52046 1.94066 4.70091 1.80965C6.295 1.63273 8.51995 1.69654 10.1999 1.78982C11.7436 1.87553 13.1812 2.56231 14.2715 3.65851" stroke="#141414" stroke-width="1.5" stroke-linecap="round" stroke-linejoin="round"/>
</svg>
