<svg width="22" height="21" viewBox="0 0 22 21" fill="none" xmlns="http://www.w3.org/2000/svg">
<path d="M4.7207 1H17.2803C19.1748 1 20.7166 2.54938 20.7168 4.46777V12.3916C20.7165 14.3109 19.1747 15.8604 17.2803 15.8604H4.7207C2.82636 15.8604 1.28345 14.311 1.2832 12.3916V4.46777C1.28336 2.54928 2.82636 1 4.7207 1ZM4.7207 1.58496C3.13448 1.58496 1.85563 2.87979 1.85547 4.46777V12.3916C1.85572 13.9806 3.1346 15.2754 4.7207 15.2754H17.2803C18.8662 15.2754 20.1443 13.9808 20.1445 12.3916V4.46777C20.1444 2.87964 18.8664 1.58496 17.2803 1.58496H4.7207Z" fill="#1A1A1A" stroke="#1A1A1A"/>
<path d="M6.86597 19.4155H15.1335C15.2874 19.4157 15.4186 19.5426 15.4187 19.7075C15.4187 19.8726 15.2875 20.0003 15.1335 20.0005H6.86597C6.71185 20.0005 6.57983 19.8727 6.57983 19.7075C6.57997 19.5425 6.71192 19.4155 6.86597 19.4155Z" fill="#1A1A1A" stroke="#1A1A1A"/>
<path d="M11.0002 15.4935C11.1542 15.4937 11.2862 15.6205 11.2864 15.7855V19.7074C11.2864 19.8725 11.1543 20.0002 11.0002 20.0004C10.8461 20.0004 10.7141 19.8726 10.7141 19.7074V15.7855C10.7142 15.6205 10.8462 15.4935 11.0002 15.4935Z" fill="#1A1A1A" stroke="#1A1A1A"/>
</svg>
