<svg width="20" height="20" viewBox="0 0 20 20" fill="none" xmlns="http://www.w3.org/2000/svg">
<path fill-rule="evenodd" clip-rule="evenodd" d="M8.68417 11.5898C9.10557 11.5898 9.4472 11.9342 9.4472 12.359C9.4472 12.6137 9.66166 13.0372 10.4409 13.4429C11.1811 13.8282 12.2569 14.0894 13.487 14.0894C14.7171 14.0894 15.7932 13.8282 16.5336 13.4429C17.3133 13.0371 17.5277 12.6135 17.5277 12.359C17.5277 11.9342 17.8693 11.5898 18.2907 11.5898C18.7121 11.5898 19.0537 11.9342 19.0537 12.359C19.0537 13.4845 18.1927 14.3107 17.2337 14.8097C16.2355 15.3292 14.9097 15.6277 13.487 15.6277C12.0643 15.6277 10.7387 15.3292 9.74071 14.8097C8.78174 14.3106 7.92114 13.4844 7.92114 12.359C7.92114 11.9342 8.26278 11.5898 8.68417 11.5898Z" fill="#1A1A1A"/>
<path fill-rule="evenodd" clip-rule="evenodd" d="M1.70956 6.87061C2.13098 6.87061 2.47259 7.21498 2.47259 7.63979C2.47259 7.89485 2.68715 8.31839 3.46658 8.72391C4.20706 9.10922 5.28309 9.37023 6.51334 9.37023C6.93474 9.37023 7.27637 9.71451 7.27637 10.1394C7.27637 10.5642 6.93474 10.9086 6.51334 10.9086C5.09077 10.9086 3.7649 10.6103 2.76672 10.091C1.80746 9.59196 0.946533 8.76575 0.946533 7.63979C0.946533 7.21498 1.28816 6.87061 1.70956 6.87061Z" fill="#1A1A1A"/>
<path fill-rule="evenodd" clip-rule="evenodd" d="M1.70956 2.49988C2.13098 2.49988 2.47259 2.84426 2.47259 3.26906V12.012C2.47259 12.2671 2.68715 12.6906 3.46658 13.0961C4.20706 13.4814 5.28309 13.7424 6.51334 13.7424C6.93474 13.7424 7.27637 14.0868 7.27637 14.5115C7.27637 14.9364 6.93474 15.2807 6.51334 15.2807C5.09077 15.2807 3.7649 14.9825 2.76672 14.4632C1.80746 13.9642 0.946533 13.138 0.946533 12.012V3.26906C0.946533 2.84426 1.28816 2.49988 1.70956 2.49988Z" fill="#1A1A1A"/>
<path fill-rule="evenodd" clip-rule="evenodd" d="M3.46666 2.18495C2.68701 2.59067 2.47259 3.0143 2.47259 3.26876C2.47259 3.52382 2.68715 3.94742 3.46658 4.35291C4.20706 4.73815 5.28309 4.99917 6.51334 4.99917C6.93474 4.99917 7.27637 5.34355 7.27637 5.76835C7.27637 6.19316 6.93474 6.53753 6.51334 6.53753C5.09077 6.53753 3.7649 6.23927 2.76672 5.71996C1.80746 5.22092 0.946533 4.39471 0.946533 3.26876C0.946533 2.14323 1.80759 1.31706 2.76663 0.817991C3.76479 0.298556 5.09066 0 6.51334 0C7.93603 0 9.26187 0.298556 10.26 0.817991C11.2191 1.31706 12.0801 2.14323 12.0801 3.26876C12.0801 3.69358 11.7385 4.03795 11.3171 4.03795C10.8957 4.03795 10.554 3.69358 10.554 3.26876C10.554 3.0143 10.3397 2.59067 9.56006 2.18495C8.81952 1.79959 7.74344 1.53837 6.51334 1.53837C5.2832 1.53837 4.20718 1.79959 3.46666 2.18495Z" fill="#1A1A1A"/>
<path fill-rule="evenodd" clip-rule="evenodd" d="M8.68417 7.21912C9.10557 7.21912 9.4472 7.5635 9.4472 7.98834V16.7313C9.4472 16.9865 9.66177 17.41 10.4408 17.8154C11.181 18.2006 12.2568 18.4616 13.487 18.4616C14.7172 18.4616 15.7933 18.2006 16.5337 17.8154C17.3131 17.4099 17.5277 16.9863 17.5277 16.7313V7.98834C17.5277 7.5635 17.8693 7.21912 18.2907 7.21912C18.7121 7.21912 19.0537 7.5635 19.0537 7.98834V16.7313C19.0537 17.8572 18.1928 18.6834 17.2336 19.1824C16.2354 19.7018 14.9096 20 13.487 20C12.0644 20 10.7388 19.7018 9.74082 19.1824C8.78164 18.6833 7.92114 17.8571 7.92114 16.7313V7.98834C7.92114 7.5635 8.26278 7.21912 8.68417 7.21912Z" fill="#1A1A1A"/>
<path fill-rule="evenodd" clip-rule="evenodd" d="M10.4409 6.90416C9.66166 7.30979 9.4472 7.73337 9.4472 7.988C9.4472 8.24265 9.66166 8.66622 10.4409 9.07183C11.1811 9.45714 12.2569 9.71846 13.487 9.71846C14.7171 9.71846 15.7932 9.45714 16.5336 9.07183C17.3133 8.66611 17.5277 8.24245 17.5277 7.988C17.5277 7.73353 17.3133 7.30991 16.5336 6.9042C15.7932 6.51884 14.7171 6.2576 13.487 6.2576C12.2569 6.2576 11.1811 6.51883 10.4409 6.90416ZM9.74071 5.53727C10.7387 5.0178 12.0643 4.71924 13.487 4.71924C14.9097 4.71924 16.2355 5.0178 17.2337 5.53723C18.1927 6.03631 19.0537 6.86247 19.0537 7.988C19.0537 9.11357 18.1927 9.93968 17.2337 10.4388C16.2355 10.9582 14.9097 11.2568 13.487 11.2568C12.0643 11.2568 10.7387 10.9582 9.74071 10.4387C8.78174 9.93957 7.92114 9.11337 7.92114 7.988C7.92114 6.86263 8.78174 6.03643 9.74071 5.53727Z" fill="#1A1A1A"/>
</svg>
