<svg width="22" height="23" viewBox="0 0 22 23" fill="none" xmlns="http://www.w3.org/2000/svg">
<path d="M10.8541 3.90585L11.6718 2.42717C12.2493 1.38257 13.6668 1.1826 14.5103 2.02721L20.4744 7.99132C21.319 8.83477 21.119 10.2522 20.0744 10.8299L18.5958 11.6475C17.7781 12.1003 16.7583 11.9569 16.0971 11.2957L11.207 6.40442C10.5448 5.74331 10.4013 4.7246 10.8541 3.90585Z" stroke="#1A1A1A" stroke-width="1.5" stroke-linecap="round" stroke-linejoin="round"/>
<path d="M15.7801 10.9731L14.3696 19.4994C14.2661 20.0781 13.7756 20.4898 13.1969 20.4816C11.1053 20.4181 6.17635 20.4346 2.47555 21.4569C2.0403 21.5756 1.6274 21.4332 1.34977 21.1556C1.0651 20.871 0.92276 20.4581 1.04157 20.0228C2.07089 16.3302 2.07911 11.3931 2.02382 9.3086C2.00854 8.72276 2.42026 8.23105 2.99902 8.12871L11.5253 6.71826" stroke="#1A1A1A" stroke-width="1.5" stroke-linecap="round" stroke-linejoin="round"/>
<path d="M9.73151 12.77C10.4503 13.4876 10.4503 14.6534 9.73151 15.3721C9.01276 16.0909 7.84814 16.0909 7.12939 15.3721C6.41064 14.6534 6.41064 13.4876 7.12939 12.77C7.84814 12.0513 9.01276 12.0513 9.73151 12.77Z" stroke="#1A1A1A" stroke-width="1.5" stroke-linecap="round" stroke-linejoin="round"/>
<path d="M7.12897 15.3706L1.34131 21.1582" stroke="#1A1A1A" stroke-width="1.5" stroke-linecap="round" stroke-linejoin="round"/>
</svg>
