<svg width="22" height="22" viewBox="0 0 22 22" fill="none" xmlns="http://www.w3.org/2000/svg">
<path d="M0.78833 8.12029C0.865633 5.38169 2.34535 2.84187 5.1723 1.91428C6.1551 1.61613 7.19312 1.53882 8.20904 1.71551C9.22495 1.88114 10.1746 2.57684 11.0028 3.19523C11.8311 2.57684 12.7918 1.88114 13.8077 1.70446C14.8126 1.52778 15.8617 1.60507 16.8334 1.91428C20.6211 3.14002 21.9683 7.29209 20.8088 10.9031C18.9095 16.7005 11.0028 20.3888 11.0028 20.3888C11.0028 20.3888 3.16252 16.7225 1.25213 11.1019" stroke="#1A1A1A" stroke-width="1.5" stroke-linecap="round" stroke-linejoin="round"/>
<path d="M1.25171 11.1006H6.41972L8.0982 7.88721L11.4773 14.3252L13.1558 11.1006H16.59" stroke="#1A1A1A" stroke-width="1.5" stroke-linecap="round" stroke-linejoin="round"/>
</svg>
