<svg width="22" height="21" viewBox="0 0 22 21" fill="none" xmlns="http://www.w3.org/2000/svg">
<path fill-rule="evenodd" clip-rule="evenodd" d="M0.396973 17.3878C0.396973 15.6693 1.79013 14.2761 3.50867 14.2761C5.22722 14.2761 6.62037 15.6693 6.62037 17.3878C6.62037 19.1064 5.22722 20.4995 3.50867 20.4995C1.79013 20.4995 0.396973 19.1064 0.396973 17.3878ZM3.50867 15.9073C2.69103 15.9073 2.02819 16.5702 2.02819 17.3878C2.02819 18.2054 2.69103 18.8683 3.50867 18.8683C4.32632 18.8683 4.98916 18.2054 4.98916 17.3878C4.98916 16.5702 4.32632 15.9073 3.50867 15.9073Z" fill="#1A1A1A"/>
<path fill-rule="evenodd" clip-rule="evenodd" d="M15.3794 3.6117C15.3794 1.89316 16.7726 0.5 18.4911 0.5C20.2096 0.5 21.6028 1.89316 21.6028 3.6117V17.3883C21.6028 19.1068 20.2096 20.5 18.4911 20.5C16.7726 20.5 15.3794 19.1068 15.3794 17.3883V3.6117ZM18.4911 2.13122C17.6735 2.13122 17.0106 2.79405 17.0106 3.6117V17.3883C17.0106 18.2059 17.6735 18.8688 18.4911 18.8688C19.3088 18.8688 19.9716 18.2059 19.9716 17.3883V3.6117C19.9716 2.79405 19.3088 2.13122 18.4911 2.13122Z" fill="#1A1A1A"/>
<path fill-rule="evenodd" clip-rule="evenodd" d="M7.68018 10.2894C7.68018 8.57088 9.07337 7.17773 10.7919 7.17773C12.5105 7.17773 13.9036 8.57088 13.9036 10.2894V17.3864C13.9036 19.1049 12.5105 20.4981 10.7919 20.4981C9.07337 20.4981 7.68018 19.105 7.68018 17.3864V10.2894ZM10.7919 8.80893C9.97424 8.80893 9.31142 9.47174 9.31142 10.2894V17.3864C9.31142 18.2041 9.97424 18.8669 10.7919 18.8669C11.6095 18.8669 12.2724 18.2041 12.2724 17.3864V10.2894C12.2724 9.47174 11.6095 8.80893 10.7919 8.80893Z" fill="#1A1A1A"/>
</svg>
