<svg width="22" height="20" viewBox="0 0 22 20" fill="none" xmlns="http://www.w3.org/2000/svg">
<path fill-rule="evenodd" clip-rule="evenodd" d="M3.58234 16.169C2.62271 17.0455 2.23894 18.1606 2.23894 19.1428C2.23894 19.6162 1.85825 20 1.38863 20C0.919028 20 0.53833 19.6162 0.53833 19.1428C0.53833 17.7148 1.09794 16.1248 2.44052 14.8986C3.78519 13.6705 5.83823 12.8752 8.71064 12.8752C11.5816 12.8752 13.6342 13.6642 14.9793 14.8865C16.323 16.1077 16.8831 17.6933 16.8831 19.1224C16.8831 19.5957 16.5024 19.9795 16.0328 19.9795C15.5632 19.9795 15.1825 19.5957 15.1825 19.1224C15.1825 18.1402 14.7992 17.0309 13.8406 16.1598C12.8835 15.29 11.2752 14.5896 8.71064 14.5896C6.14784 14.5896 4.53986 15.2945 3.58234 16.169Z" fill="#1A1A1A"/>
<path fill-rule="evenodd" clip-rule="evenodd" d="M8.7112 1.71432C6.59827 1.71432 4.88518 3.4418 4.88518 5.57229C4.88518 7.70279 6.59827 9.43026 8.7112 9.43026C10.8254 9.43026 12.5384 7.70267 12.5384 5.57229C12.5384 3.44193 10.8254 1.71432 8.7112 1.71432ZM3.18457 5.57229C3.18457 2.49552 5.65855 0 8.7112 0C11.7648 0 14.239 2.49539 14.239 5.57229C14.239 8.64921 11.7648 11.1446 8.7112 11.1446C5.65855 11.1446 3.18457 8.6491 3.18457 5.57229Z" fill="#1A1A1A"/>
<path fill-rule="evenodd" clip-rule="evenodd" d="M15.7098 10.1422C15.3744 9.81078 15.3733 9.27237 15.7074 8.93961L17.8338 6.82179C17.9902 6.6557 18.2129 6.55196 18.4601 6.55196C18.7145 6.55196 18.9432 6.66193 19.1001 6.83664L21.2116 8.93961C21.5457 9.27237 21.5445 9.81078 21.2092 10.1422C20.8738 10.4736 20.331 10.4724 19.997 10.1398L19.3173 9.46272L19.3173 12.7001C19.3173 13.1697 18.9335 13.5504 18.4601 13.5504C17.9868 13.5504 17.603 13.1697 17.603 12.7001L17.603 9.46147L16.922 10.1398C16.588 10.4724 16.0452 10.4736 15.7098 10.1422Z" fill="#1A1A1A"/>
</svg>
