<svg width="24" height="21" viewBox="0 0 24 21" fill="none" xmlns="http://www.w3.org/2000/svg">
<path d="M15.7238 0.898112C16.3789 1.15887 16.8421 1.62888 17.2574 2.31795L17.3943 2.55576L17.9019 3.52913L17.9186 3.55631L17.9337 3.57997L17.9768 3.63891C18.2081 3.89091 18.5952 4.04315 18.8506 4.04315C21.1908 4.04315 23.1021 5.88096 23.2193 8.19136L23.225 8.41637V14.9212C23.225 17.9205 20.8563 20.3681 17.8881 20.4948L17.6462 20.5H6.35393C3.35389 20.5 0.907006 18.1317 0.780301 15.1632L0.775146 14.9212V8.41637C0.775146 6.00144 2.73387 4.04315 5.1495 4.04315C5.40405 4.04315 5.79165 3.89069 6.02329 3.63891L6.03127 3.6295L6.04126 3.61641L6.09898 3.52787L6.60517 2.55607C7.05635 1.73606 7.54718 1.1879 8.27551 0.898006C9.61016 0.367314 14.3902 0.367314 15.7238 0.898112ZM8.89789 2.46249C8.64939 2.5614 8.42439 2.79035 8.18429 3.18725L8.08034 3.36775L7.64834 4.20299L7.54201 4.39542C7.45325 4.54306 7.36447 4.66769 7.26309 4.77814C6.74627 5.3399 6.00424 5.66436 5.34461 5.71871L5.1495 5.72688L4.9653 5.73309C3.62625 5.82363 2.55566 6.89397 2.46509 8.23228L2.45888 8.41637V14.9212C2.45888 17.0004 4.08845 18.6995 6.14022 18.8105L6.35393 18.8163H17.6462C19.725 18.8163 21.4245 17.186 21.5355 15.1349L21.5412 14.9212V8.41637C21.5412 6.9933 20.4347 5.82775 19.0348 5.73309L18.8506 5.72688L18.6552 5.71871C17.9946 5.66435 17.2525 5.33981 16.7364 4.7774C16.6363 4.6684 16.548 4.54466 16.4598 4.39827L16.4386 4.36198L16.4133 4.31691L16.283 4.07249L15.9194 3.36806C15.6739 2.92231 15.4491 2.64989 15.2064 2.51298L15.1011 2.46249L14.9672 2.41796C13.812 2.09145 9.79371 2.10629 8.89789 2.46249ZM11.9997 7.45855C14.4358 7.45855 16.41 9.43278 16.41 11.8688C16.41 14.3049 14.4358 16.2791 11.9997 16.2791C9.56368 16.2791 7.58946 14.3049 7.58946 11.8688C7.58946 9.43278 9.56368 7.45855 11.9997 7.45855ZM11.9997 9.14229C10.4936 9.14229 9.2732 10.3627 9.2732 11.8688C9.2732 13.375 10.4936 14.5954 11.9997 14.5954C13.5059 14.5954 14.7263 13.375 14.7263 11.8688C14.7263 10.3627 13.5059 9.14229 11.9997 9.14229ZM18.1786 6.67393C18.7985 6.67393 19.3011 7.17649 19.3011 7.79642C19.3011 8.37208 18.8678 8.84652 18.3095 8.91136L18.1786 8.91891C17.5486 8.91891 17.046 8.41636 17.046 7.79642C17.046 7.22077 17.4793 6.74632 18.0376 6.68148L18.1786 6.67393Z" fill="#1A1A1A"/>
</svg>
