<svg width="7" height="14" viewBox="0 0 7 14" fill="none" xmlns="http://www.w3.org/2000/svg">
<path d="M3.36453 0.940918C2.7942 0.940918 2.50903 0.940918 2.27581 1.00672C1.68947 1.17214 1.23122 1.63039 1.0658 2.21673C1 2.44997 1 2.73507 1 3.30527C1 5.68287 1 8.15347 1 10.5311C1 11.1013 1 11.3864 1.0658 11.6196C1.23122 12.206 1.68947 12.6642 2.27581 12.8297C2.50903 12.8954 2.7942 12.8955 3.36453 12.8955C3.93486 12.8955 4.22003 12.8954 4.45325 12.8297C5.03959 12.6642 5.49783 12.206 5.66326 11.6196C5.72906 11.3864 5.72906 11.1013 5.72906 10.5311C5.72906 8.15347 5.72906 5.68287 5.72906 3.30527C5.72906 2.73507 5.72906 2.44997 5.66326 2.21673C5.49783 1.63039 5.03959 1.17214 4.45325 1.00672C4.22003 0.940918 3.93486 0.940918 3.36453 0.940918Z" stroke="#141414" stroke-width="1.5" stroke-linecap="round" stroke-linejoin="round"/>
</svg>
