<svg width="16" height="20" viewBox="0 0 16 20" fill="none" xmlns="http://www.w3.org/2000/svg">
<path d="M1.72852 8.02234C3.17424 6.15312 4.6084 4.27428 6.066 2.41431C6.5278 1.82502 7.3364 1.5282 8.0623 1.73923C9.6813 2.2099 9.268 5.08131 8.8446 6.60416C8.5306 7.73344 8.9124 8.12514 9.8317 8.12514C11.842 8.12514 12.7972 8.12514 13.4816 8.53637C14.1075 8.91247 14.567 9.51247 14.7672 10.2147C15.1845 11.6789 15.0408 14.4681 14.3255 16.4121C13.8424 17.7255 12.4795 18.6287 11.299 18.7597C9.705 18.9366 7.48 18.8728 5.8001 18.7795C4.2564 18.6938 2.81876 18.007 1.72852 16.9108" stroke="#141414" stroke-width="1.5" stroke-linecap="round" stroke-linejoin="round"/>
</svg>
